<?xml version="1.0" encoding="utf-8"?>
<!-- Generator: Adobe Illustrator 16.0.0, SVG Export Plug-In . SVG Version: 6.00 Build 0)  -->
<!DOCTYPE svg PUBLIC "-//W3C//DTD SVG 1.1//EN" "http://www.w3.org/Graphics/SVG/1.1/DTD/svg11.dtd">
<svg version="1.1" id="Layer_1" xmlns="http://www.w3.org/2000/svg" xmlns:xlink="http://www.w3.org/1999/xlink" x="0px" y="0px"
	 width="130px" height="43px" viewBox="0 0 130 43" enable-background="new 0 0 130 43" xml:space="preserve">
<g>
	<path fill="#FFFFFF" d="M13.455,5.61L13.455,5.61H1.405v31.812h12.05c8.983,0,16.07-7.018,16.07-15.906
		C29.525,12.86,22.438,5.61,13.455,5.61z M13.694,29.702L13.694,29.702h-0.239H9.204V13.329h4.251h0.239
		c4.488,0.234,8.032,3.742,8.032,8.187C21.727,25.96,18.182,29.468,13.694,29.702z M59.539,10.991L59.539,10.991
		c-7.562,0-13.472,6.08-13.472,13.564c0,7.954,6.381,13.334,13.234,13.334c2.363,0,5.437-0.937,7.8-3.275l6.145,2.808V24.555
		C73.246,17.071,67.101,10.991,59.539,10.991z M65.21,26.428L65.21,26.428c-0.71,2.339-3.073,3.976-5.671,3.976
		c-3.307,0-5.907-2.572-5.907-5.849c0-3.274,2.6-5.848,5.907-5.848c3.31,0,5.906,2.574,5.906,5.848
		C65.445,25.259,65.445,25.726,65.21,26.428z M33.779,37.421L33.779,37.421h8.272v-26.9l-8.272,3.509V37.421z M97.113,13.795
		L97.113,13.795c0,2.573,1.891,4.445,4.254,4.445c2.6,0,4.49-1.872,4.49-4.445c0-2.339-1.891-4.21-4.49-4.21
		C99.003,9.585,97.113,11.456,97.113,13.795z M124.054,1.398L124.054,1.398H101.13c-6.854,0-12.525,5.38-12.525,12.397V36.72
		c0,2.572,2.127,4.678,4.963,4.678h22.924c6.854,0,12.523-5.381,12.523-12.164V6.31C129.015,3.504,126.888,1.398,124.054,1.398z
		 M124.999,29.234L124.999,29.234c0,4.68-3.78,8.422-8.507,8.422H92.623v-23.86c0-4.679,3.781-8.655,8.508-8.655h23.868V29.234z
		 M104.911,32.978L104.911,32.978l15.596-23.159h-7.798L97.113,32.978H104.911z M116.255,24.555L116.255,24.555
		c-2.6,0-4.489,2.106-4.489,4.446c0,2.338,1.89,4.443,4.489,4.443c2.363,0,4.251-2.105,4.251-4.443
		C120.506,26.662,118.619,24.555,116.255,24.555z"/>
</g>
</svg>
